<?xml version="1.0" encoding="UTF-8"?>
<svg xmlns="http://www.w3.org/2000/svg" xmlns:xlink="http://www.w3.org/1999/xlink" width="26px" height="26px" viewBox="0 0 26 26" version="1.1">
<g id="surface1">
<path style=" stroke:none;fill-rule:nonzero;fill:rgb(96.08%,96.08%,96.08%);fill-opacity:1;" d="M 21.125 10.5625 C 21.125 12.894531 20.367188 15.046875 19.09375 16.792969 L 25.523438 23.226562 C 26.15625 23.863281 26.15625 24.894531 25.523438 25.527344 C 24.886719 26.164062 23.855469 26.164062 23.222656 25.527344 L 16.792969 19.09375 C 15.046875 20.375 12.894531 21.125 10.5625 21.125 C 4.726562 21.125 0 16.398438 0 10.5625 C 0 4.726562 4.726562 0 10.5625 0 C 16.398438 0 21.125 4.726562 21.125 10.5625 Z M 10.5625 17.875 C 14.601562 17.875 17.875 14.601562 17.875 10.5625 C 17.875 6.523438 14.601562 3.25 10.5625 3.25 C 6.523438 3.25 3.25 6.523438 3.25 10.5625 C 3.25 14.601562 6.523438 17.875 10.5625 17.875 Z M 10.5625 17.875 "/>
</g>
</svg>
