<?xml version="1.0" encoding="UTF-8"?>
<svg xmlns="http://www.w3.org/2000/svg" xmlns:xlink="http://www.w3.org/1999/xlink" width="22px" height="22px" viewBox="0 0 22 22" version="1.1">
<g id="surface1">
<path style=" stroke:none;fill-rule:nonzero;fill:rgb(96.08%,96.08%,96.08%);fill-opacity:1;" d="M 15.125 4.125 L 17.875 4.125 C 18.636719 4.125 19.25 4.738281 19.25 5.5 L 19.25 16.5 C 19.25 17.261719 18.636719 17.875 17.875 17.875 L 15.125 17.875 C 14.363281 17.875 13.75 18.488281 13.75 19.25 C 13.75 20.011719 14.363281 20.625 15.125 20.625 L 17.875 20.625 C 20.152344 20.625 22 18.777344 22 16.5 L 22 5.5 C 22 3.222656 20.152344 1.375 17.875 1.375 L 15.125 1.375 C 14.363281 1.375 13.75 1.988281 13.75 2.75 C 13.75 3.511719 14.363281 4.125 15.125 4.125 Z M 14.804688 11.746094 C 15.007812 11.554688 15.125 11.285156 15.125 11 C 15.125 10.714844 15.007812 10.445312 14.804688 10.253906 L 8.617188 4.410156 C 8.3125 4.125 7.875 4.046875 7.5 4.210938 C 7.121094 4.375 6.875 4.746094 6.875 5.15625 L 6.875 8.25 L 1.375 8.25 C 0.613281 8.25 0 8.863281 0 9.625 L 0 12.375 C 0 13.136719 0.613281 13.75 1.375 13.75 L 6.875 13.75 L 6.875 16.84375 C 6.875 17.257812 7.121094 17.625 7.5 17.789062 C 7.875 17.953125 8.3125 17.875 8.617188 17.589844 Z M 14.804688 11.746094 "/>
</g>
</svg>
