<?xml version="1.0" encoding="UTF-8"?>
<svg xmlns="http://www.w3.org/2000/svg" xmlns:xlink="http://www.w3.org/1999/xlink" width="22px" height="22px" viewBox="0 0 22 20" version="1.1">
<g id="surface1">
<path style=" stroke:none;fill-rule:nonzero;fill:rgb(96.08%,96.08%,96.08%);fill-opacity:1;" d="M 0.917969 0 C 0.410156 0 0 0.417969 0 0.9375 C 0 1.457031 0.410156 1.875 0.917969 1.875 L 2.90625 1.875 L 5.210938 14.238281 C 5.292969 14.679688 5.671875 15 6.109375 15 L 18.640625 15 C 19.148438 15 19.554688 14.582031 19.554688 14.0625 C 19.554688 13.542969 19.148438 13.125 18.640625 13.125 L 6.871094 13.125 L 6.523438 11.25 L 18.632812 11.25 C 19.175781 11.25 19.660156 10.878906 19.808594 10.339844 L 21.871094 2.839844 C 22.085938 2.042969 21.503906 1.25 20.695312 1.25 L 4.660156 1.25 L 4.566406 0.761719 C 4.484375 0.320312 4.105469 0 3.667969 0 Z M 6.722656 20 C 7.734375 20 8.554688 19.160156 8.554688 18.125 C 8.554688 17.089844 7.734375 16.25 6.722656 16.25 C 5.710938 16.25 4.890625 17.089844 4.890625 18.125 C 4.890625 19.160156 5.710938 20 6.722656 20 Z M 19.554688 18.125 C 19.554688 17.089844 18.734375 16.25 17.722656 16.25 C 16.710938 16.25 15.890625 17.089844 15.890625 18.125 C 15.890625 19.160156 16.710938 20 17.722656 20 C 18.734375 20 19.554688 19.160156 19.554688 18.125 Z M 19.554688 18.125 "/>
</g>
</svg>
